<?xml version="1.0" encoding="iso-8859-1"?>
<!-- Uploaded to: SVG Repo, www.svgrepo.com, Generator: SVG Repo Mixer Tools -->
<!DOCTYPE svg PUBLIC "-//W3C//DTD SVG 1.1//EN" "http://www.w3.org/Graphics/SVG/1.1/DTD/svg11.dtd">
<svg fill="#000000" version="1.1" id="Capa_1" xmlns="http://www.w3.org/2000/svg" xmlns:xlink="http://www.w3.org/1999/xlink" 
	 width="800px" height="800px" viewBox="0 0 309.154 309.155"
	 xml:space="preserve">
<g>
	<g>
		<g>
			<path d="M224.122,0c-15.561,0-28.221,12.659-28.221,28.221c0,3.888,0.786,7.585,2.215,10.956
				c-0.673-0.092-1.334-0.205-2.033-0.205h-69.465c-5.194-7.929-13.864-12.766-23.444-12.766c-15.562,0-28.221,12.659-28.221,28.221
				s12.659,28.221,28.221,28.221c9.688,0,18.68-5.119,23.803-13.25l30.354-0.84c-25.808,23.185-26.264,23.712-26.533,24.017
				c-2.436,2.829-3.78,6.405-3.78,10.068c0,3.323,1.108,6.575,3.16,9.297l-51.323,51.633c-4.208,2.898-6.704,7.602-6.704,12.709
				c0,8.521,6.935,15.455,15.459,15.455c4.032,0,7.853-1.559,10.762-4.384l0,0c0.103-0.094,0.194-0.189,0.265-0.252l54.704-54.822
				c7.113,6.102,13.99,11.986,17.202,14.735v32.8c0,8.521,6.935,15.455,15.46,15.455c8.52,0,15.454-6.935,15.454-15.455v-38.294
				c0-3.457-2.147-7.606-2.808-8.795c-0.252-0.462-0.573-0.882-0.956-1.247l-27.563-26.819l36.729-36.901
				c4.709-3.312,4.688-8.924,4.678-12.691v-0.63c0-0.394-0.089-0.764-0.11-1.144c3.831,1.95,8.105,3.16,12.694,3.16
				c15.559,0,28.221-12.66,28.221-28.222C252.343,12.67,239.681,0,224.122,0z M111.329,69.833c-2.473,1.331-5.267,2.067-8.16,2.067
				c-9.633,0-17.469-7.836-17.469-17.47c0-9.632,7.836-17.47,17.469-17.47c2.887,0,5.656,0.709,8.103,2.016h-2
				c-8.525,0-15.459,6.935-15.459,15.454c0,8.521,6.934,15.455,15.604,15.455L111.329,69.833z"/>
		</g>
		<g>
			<path d="M203.438,294.042c2.972,0,5.376-2.41,5.376-5.376v-66.73c0-2.971-2.404-5.376-5.376-5.376H74.804
				c-2.974,0-5.375,2.405-5.375,5.376v66.73c0,2.966,2.402,5.376,5.375,5.376H203.438z"/>
		</g>
		<g>
			<path d="M216.059,298.404H62.187c-2.971,0-5.375,2.408-5.375,5.375c0,2.966,2.405,5.376,5.375,5.376h153.872
				c2.971,0,5.375-2.41,5.375-5.376C221.434,300.812,219.029,298.404,216.059,298.404z"/>
		</g>
		<g>
			<path d="M216.059,201.441H62.187c-2.971,0-5.375,2.409-5.375,5.375c0,2.972,2.405,5.376,5.375,5.376h153.872
				c2.971,0,5.375-2.404,5.375-5.376C221.434,203.85,219.029,201.441,216.059,201.441z"/>
		</g>
	</g>
</g>
</svg>