<svg width="50" height="50" viewBox="0 0 50 50" fill="none" xmlns="http://www.w3.org/2000/svg">
<path d="M48 10.2143C48 11.293 47.4051 12.3612 46.2492 13.3578C45.0934 14.3544 43.3992 15.2599 41.2635 16.0227C39.1277 16.7854 36.5922 17.3905 33.8017 17.8033C31.0112 18.2161 28.0204 18.4286 25 18.4286C18.9 18.4286 13.0499 17.5631 8.73654 16.0227C4.42321 14.4822 2 12.3928 2 10.2143M48 10.2143C48 9.13557 47.4051 8.06742 46.2492 7.07081C45.0934 6.07421 43.3992 5.16867 41.2635 4.40591C39.1277 3.64314 36.5922 3.03808 33.8017 2.62528C31.0112 2.21247 28.0204 2 25 2C21.9796 2 18.9888 2.21247 16.1983 2.62528C13.4078 3.03808 10.8723 3.64314 8.73654 4.40591C6.6008 5.16867 4.90663 6.07421 3.75077 7.07081C2.59491 8.06742 2 9.13557 2 10.2143M48 10.2143V39.786C48 41.2279 46.9373 42.6444 44.9186 43.8931C42.8999 45.1419 39.9964 46.1788 36.5 46.8998C33.0036 47.6207 29.0373 48.0003 25 48.0003C20.9627 48.0003 16.9964 47.6207 13.5 46.8998C10.0036 46.1788 7.10009 45.1419 5.08141 43.8931C3.06274 42.6444 2 41.2279 2 39.786V10.2143M48 29.928C48 31.3699 46.9373 32.7864 44.9186 34.0352C42.8999 35.2839 39.9964 36.3209 36.5 37.0418C33.0036 37.7628 29.0373 38.1423 25 38.1423C20.9627 38.1423 16.9964 37.7628 13.5 37.0418C10.0036 36.3208 7.10009 35.2839 5.08142 34.0352C3.06274 32.7864 2 31.3699 2 29.928M48 20.072C48 21.5139 46.9373 22.9304 44.9186 24.1791C42.8999 25.4278 39.9964 26.4648 36.5 27.1858C33.0036 27.9067 29.0373 28.2863 25 28.2863C20.9627 28.2863 16.9964 27.9067 13.5 27.1858C10.0036 26.4648 7.10009 25.4278 5.08141 24.1791C3.06274 22.9304 2 21.5139 2 20.072" stroke="#659581" stroke-width="3.28615" stroke-linecap="round" stroke-linejoin="round"/>
</svg>
