<svg width="2355" height="2355" viewBox="0 0 2355 2355" fill="none" xmlns="http://www.w3.org/2000/svg">
<path d="M2297.05 1023.67L2053.98 1217.57L2097.25 1750.46L2093.44 1767.16L2089.62 1776.15L2080.71 1797.98L2069.26 1817.24L2046.35 1842.92L2000.54 1887.86C1976.36 1908.41 1940.72 1966.19 1898.73 1910.97L1720.56 1485.94L1574.21 1601.51L1581.85 1830.08L1576.76 1846.77L1565.3 1869.88L1541.12 1900.7C1516.95 1928.95 1464.77 1979.03 1434.23 1934.09L1327.33 1654.16L1091.89 1527.04C1082.99 1523.18 1039.72 1497.5 1058.81 1456.41L1093.17 1424.31L1128.8 1396.06L1140.25 1390.92L1150.43 1385.79L1164.43 1381.93L1177.16 1379.37L1189.88 1378.08H1210.24L1219.15 1379.37L1408.77 1411.47L1541.12 1277.92L1201.33 1078.89C1189.88 1072.47 1108.44 1046.79 1136.44 987.722L1252.24 887.564L1268.79 878.576L1286.6 872.155L1304.42 867.019H1332.42L1355.32 869.587L1846.55 974.882L2011.99 810.52C2041.26 782.27 2102.34 689.816 2232.15 725.767C2316.14 743.745 2423.29 900.401 2297.05 1023.67Z" fill="#689985"/>
<path d="M1781.64 748.887L1569.12 703.941C1410.05 665.419 1245.88 599.931 1060.08 771.997C958.272 847.758 818.285 1033.95 1024.45 1215C865.371 1297.19 801.741 1482.09 870.462 1591.24L505.22 1893C213.796 1652.87 -151.439 1105.86 306.693 415.026C530.672 69.6065 1401.13 -336.162 1999.26 463.821L2043.8 535.729L2034.89 538.297L2008.17 549.854L1980.17 565.263L1953.44 583.24L1927.99 602.501L1889.81 641.024L1872 657.717L1781.64 748.887Z" fill="#689985"/>
<path d="M22.9069 1718.36L43.2686 1665.72L123.443 1792.84L161.621 1844.2L223.979 1914.83L236.705 1959.77C259.611 2053.51 453.047 2176.78 607.033 2075.34L1030.81 1728.64L1163.16 1800.54L1211.52 1930.24L772.471 2266.66L740.656 2287.21L703.751 2309.04C505.224 2393.79 181.983 2389.94 33.0877 2047.09L12.7261 1990.59L3.81782 1941.79L0 1895.57V1836.5L7.63563 1777.43L22.9069 1718.36Z" fill="#689985"/>
</svg>
