<?xml version="1.0" encoding="iso-8859-1"?>
<!-- Uploaded to: SVG Repo, www.svgrepo.com, Generator: SVG Repo Mixer Tools -->
<svg fill="#000000" height="800px" width="800px" version="1.1" id="Layer_1" xmlns="http://www.w3.org/2000/svg" xmlns:xlink="http://www.w3.org/1999/xlink" 
	 viewBox="0 0 512 512" xml:space="preserve">
<g>
	<g>
		<g>
			<path d="M29.642,91.621h43.116c16.345,0,29.642-13.297,29.642-29.642c0-5.188-1.382-10.317-3.996-14.831
				c-2.238-3.863-7.183-5.181-11.047-2.945c-3.864,2.238-5.183,7.184-2.945,11.047c1.207,2.085,1.819,4.348,1.819,6.728
				c0,7.43-6.044,13.474-13.474,13.474H29.642c-7.43,0-13.474-6.044-13.474-13.474s6.044-13.474,13.474-13.474h13.686
				c2.89,0,5.561-1.542,7.004-4.046c1.444-2.504,1.441-5.588-0.008-8.089c-1.207-2.085-1.82-4.348-1.82-6.728
				c0-7.43,6.044-13.474,13.474-13.474h107.789c7.43,0,13.474,6.044,13.474,13.474c0,7.43-6.044,13.474-13.474,13.474h-43.116
				c-4.465,0-8.084,3.62-8.084,8.084s3.62,8.084,8.084,8.084h43.116c16.345,0,29.642-13.297,29.642-29.642
				C199.411,13.297,186.114,0,169.768,0H61.979C45.634,0,32.337,13.297,32.337,29.642c0,0.901,0.042,1.8,0.124,2.695h-2.819
				C13.297,32.337,0,45.634,0,61.979C0,78.324,13.297,91.621,29.642,91.621z"/>
			<path d="M312.589,164.379c0,4.465,3.62,8.084,8.084,8.084c4.465,0,8.084-3.62,8.084-8.084c0-46.062,37.475-83.537,83.537-83.537
				c46.062,0,83.537,37.475,83.537,83.537c0,40.557-28.929,75.143-68.785,82.24c-4.396,0.783-7.324,4.981-6.542,9.376
				c0.697,3.917,4.106,6.669,7.949,6.669c0.471,0,0.947-0.042,1.426-0.127C477.463,254.065,512,212.784,512,164.379
				c0-54.978-44.727-99.705-99.705-99.705S312.589,109.401,312.589,164.379z"/>
			<path d="M412.295,204.8c-8.039,0-15.802-2.352-22.449-6.802c-3.71-2.482-8.731-1.487-11.214,2.223
				c-2.483,3.71-1.489,8.732,2.223,11.214c9.318,6.237,20.19,9.533,31.442,9.533c31.204,0,56.589-25.385,56.589-56.589
				s-25.387-56.589-56.591-56.589s-56.589,25.385-56.589,56.589c0,4.465,3.62,8.084,8.084,8.084c4.465,0,8.084-3.62,8.084-8.084
				c0-22.289,18.132-40.421,40.421-40.421s40.421,18.132,40.421,40.421S434.583,204.8,412.295,204.8z"/>
			<path d="M320.674,102.4c4.465,0,8.084-3.62,8.084-8.084s-3.62-8.084-8.084-8.084c-7.43,0-13.474-6.044-13.474-13.474
				c0-7.43,6.044-13.474,13.474-13.474h43.116c2.371,0,4.699,0.622,6.731,1.798c3.864,2.237,8.81,0.916,11.046-2.949
				c2.236-3.864,0.916-8.81-2.949-11.046c-4.49-2.598-9.618-3.971-14.829-3.971h-43.116c-16.345,0-29.642,13.297-29.642,29.642
				C291.032,89.103,304.328,102.4,320.674,102.4z"/>
			<path d="M439.242,312.589h-10.779c-4.465,0-8.084,3.62-8.084,8.084c0,4.465,3.62,8.084,8.084,8.084h10.779
				c4.465,0,8.084-3.62,8.084-8.084C447.326,316.209,443.707,312.589,439.242,312.589z"/>
			<path d="M245.221,194.021c-4.465,0-8.084,3.62-8.084,8.084v140.126c0,4.465,3.62,8.084,8.084,8.084
				c4.465,0,8.084-3.62,8.084-8.084V202.105C253.305,197.641,249.686,194.021,245.221,194.021z"/>
			<path d="M439.242,344.926h-10.779c-4.465,0-8.084,3.62-8.084,8.084c0,4.465,3.62,8.084,8.084,8.084h10.779
				c4.465,0,8.084-3.62,8.084-8.084C447.326,348.546,443.707,344.926,439.242,344.926z"/>
			<path d="M129.347,406.905V234.442c0-4.465-3.62-8.084-8.084-8.084c-4.465,0-8.084,3.62-8.084,8.084v172.463
				c0,4.465,3.62,8.084,8.084,8.084C125.728,414.989,129.347,411.37,129.347,406.905z"/>
			<path d="M503.916,495.832h-2.695V299.116c0-10.401-8.463-18.863-18.863-18.863h-78.147v-35.032
				c0-10.401-8.463-18.863-18.863-18.863h-24.253v-24.253c0-10.401-8.463-18.863-18.863-18.863h-45.81v-24.253
				c0-10.401-8.463-18.863-18.863-18.863h-13.474V83.537c0-4.465-3.62-8.084-8.084-8.084c-4.465,0-8.084,3.62-8.084,8.084v56.589
				h-37.726v-13.474c0-10.401-8.463-18.863-18.863-18.863h-10.779c-10.401,0-18.863,8.463-18.863,18.863v67.368H94.316
				c-10.401,0-18.863,8.463-18.863,18.863v194.021c0,4.465,3.62,8.084,8.084,8.084c4.465,0,8.084-3.62,8.084-8.084V212.884
				c0-1.485,1.209-2.695,2.695-2.695h67.368v285.642h-37.726v-45.81c0-10.401-8.463-18.863-18.863-18.863H29.642
				c-10.401,0-18.863,8.463-18.863,18.863v45.81H8.084c-4.465,0-8.084,3.62-8.084,8.084C0,508.38,3.62,512,8.084,512h334.147
				c4.465,0,8.084-3.62,8.084-8.084c0-4.465-3.62-8.084-8.084-8.084H231.747v-8.854c0-21.225,11.44-41.027,29.854-51.677
				c2.537-1.467,4.081-4.192,4.036-7.123l-0.014-0.484c0-18.892,15.37-34.262,34.262-34.262c16.231,0,30.351,11.524,33.574,27.401
				c0.764,3.768,4.078,6.476,7.923,6.476h0.849c32.902,0,59.669,26.767,59.669,59.669v8.854h-27.332
				c-4.465,0-8.084,3.62-8.084,8.084c0,4.465,3.62,8.084,8.084,8.084h129.347c4.465,0,8.084-3.62,8.084-8.084
				C512,499.451,508.38,495.832,503.916,495.832z M107.789,495.832H26.947v-45.81c0-1.485,1.209-2.695,2.695-2.695h75.453
				c1.485,0,2.695,1.209,2.695,2.695V495.832z M296.421,199.411h45.81c1.485,0,2.695,1.209,2.695,2.695v24.253h-48.505V199.411z
				 M177.853,126.653c0-1.485,1.209-2.695,2.695-2.695h10.779c1.485,0,2.695,1.209,2.695,2.695v13.474h-16.168V126.653z
				 M485.053,495.832h-66.985v-8.854c0-40.013-31.151-72.887-70.473-75.65c-6.891-20.075-26.02-34.065-47.71-34.065
				c-26.47,0-48.242,20.499-50.274,46.455c-21.102,13.979-34.032,37.814-34.032,63.26v8.854h-37.726V156.295h99.705
				c1.485,0,2.695,1.209,2.695,2.695V353.01c0,4.465,3.62,8.084,8.084,8.084c4.465,0,8.084-3.62,8.084-8.084V242.526h88.926
				c1.485,0,2.695,1.209,2.695,2.695v161.684c0,4.465,3.62,8.084,8.084,8.084c4.465,0,8.084-3.62,8.084-8.084V296.421h78.147
				c1.485,0,2.695,1.209,2.695,2.695V495.832z"/>
			<path d="M439.242,377.263h-10.779c-4.465,0-8.084,3.62-8.084,8.084c0,4.465,3.62,8.084,8.084,8.084h10.779
				c4.465,0,8.084-3.62,8.084-8.084C447.326,380.883,443.707,377.263,439.242,377.263z"/>
			<path d="M353.01,258.695c-4.465,0-8.084,3.62-8.084,8.084v75.453c0,4.465,3.62,8.084,8.084,8.084c4.465,0,8.084-3.62,8.084-8.084
				v-75.453C361.095,262.314,357.475,258.695,353.01,258.695z"/>
		</g>
	</g>
</g>
</svg>