<?xml version="1.0" encoding="utf-8"?>
<!-- Uploaded to: SVG Repo, www.svgrepo.com, Generator: SVG Repo Mixer Tools -->
<svg width="800px" height="800px" viewBox="0 0 64 64" xmlns="http://www.w3.org/2000/svg">
<title>moscow</title>
<g id="moscow">
<circle cx="27.975" cy="13.5" r="1.025"/>
<circle cx="15" cy="12" r="2" style="fill:none;stroke:#000000;stroke-linecap:round;stroke-linejoin:round;stroke-width:2px"/>
<line x1="15.137" y1="20.697" x2="15.137" y2="22.112" style="fill:none;stroke:#000000;stroke-linecap:round;stroke-linejoin:round;stroke-width:2px"/>
<line x1="15.137" y1="26.356" x2="15.137" y2="27.771" style="fill:none;stroke:#000000;stroke-linecap:round;stroke-linejoin:round;stroke-width:2px"/>
<line x1="11.6" y1="24.234" x2="13.014" y2="24.234" style="fill:none;stroke:#000000;stroke-linecap:round;stroke-linejoin:round;stroke-width:2px"/>
<line x1="17.259" y1="24.234" x2="18.674" y2="24.234" style="fill:none;stroke:#000000;stroke-linecap:round;stroke-linejoin:round;stroke-width:2px"/>
<line x1="46" y1="25" x2="46" y2="37.203" style="fill:none;stroke:#000000;stroke-linecap:round;stroke-linejoin:round;stroke-width:2px"/>
<polyline points="36.59 25 47.928 25 41 12 34.907 23.434" style="fill:none;stroke:#000000;stroke-linecap:round;stroke-linejoin:round;stroke-width:2px"/>
<line x1="41" y1="12" x2="41" y2="1" style="fill:none;stroke:#000000;stroke-linecap:round;stroke-linejoin:round;stroke-width:2px"/>
<line x1="38" y1="4" x2="44" y2="4" style="fill:none;stroke:#000000;stroke-linecap:round;stroke-linejoin:round;stroke-width:2px"/>
<path d="M47.928,41h8.145A17.153,17.153,0,0,0,57,35.286C57,29.605,51.5,25,51.5,25S46,29.605,46,35.286a18.71,18.71,0,0,0,.247,3.054" style="fill:none;stroke:#000000;stroke-linecap:round;stroke-linejoin:round;stroke-width:2px"/>
<polyline points="47.928 41 56 41 56 48.686" style="fill:none;stroke:#000000;stroke-linecap:round;stroke-linejoin:round;stroke-width:2px"/>
<path d="M28.156,37h9.579A13.078,13.078,0,0,0,39,31.286C39,25.605,31.5,21,31.5,21s-6.057,3.719-7.285,8.595" style="fill:none;stroke:#000000;stroke-linecap:round;stroke-linejoin:round;stroke-width:2px"/>
<line x1="37" y1="37.401" x2="37" y2="48.686" style="fill:none;stroke:#000000;stroke-linecap:round;stroke-linejoin:round;stroke-width:2px"/>
<line x1="60" y1="62" x2="4" y2="62" style="fill:none;stroke:#000000;stroke-linecap:round;stroke-linejoin:round;stroke-width:2px"/>
<polygon points="45 36 38.072 49 51.928 49 45 36" style="fill:none;stroke:#000000;stroke-linecap:round;stroke-linejoin:round;stroke-width:2px"/>
<polygon points="12 33 8 46 16 46 12 33" style="fill:none;stroke:#000000;stroke-linecap:round;stroke-linejoin:round;stroke-width:2px"/>
<path d="M27.241,45A20.627,20.627,0,0,0,28,39.286C28,33.6,23.5,29,23.5,29S19,33.6,19,39.286A20.627,20.627,0,0,0,19.759,45Z" style="fill:none;stroke:#000000;stroke-linecap:round;stroke-linejoin:round;stroke-width:2px"/>
<polyline points="58 61.714 58 49 27 49 27 45 20 45 20 49 6 49 6 61.634" style="fill:none;stroke:#000000;stroke-linecap:round;stroke-linejoin:round;stroke-width:2px"/>
<path d="M25,61.714V60a7,7,0,0,0-7-7h0a7,7,0,0,0-7,7v1.714" style="fill:none;stroke:#000000;stroke-linecap:round;stroke-linejoin:round;stroke-width:2px"/>
<line x1="15" y1="48.686" x2="15" y2="46.429" style="fill:none;stroke:#000000;stroke-linecap:round;stroke-linejoin:round;stroke-width:2px"/>
<line x1="9" y1="46.429" x2="9" y2="48.686" style="fill:none;stroke:#000000;stroke-linecap:round;stroke-linejoin:round;stroke-width:2px"/>
<line x1="30" y1="54" x2="30" y2="62" style="fill:none;stroke:#000000;stroke-linecap:round;stroke-linejoin:round;stroke-width:2px"/>
<line x1="34" y1="54" x2="34" y2="62" style="fill:none;stroke:#000000;stroke-linecap:round;stroke-linejoin:round;stroke-width:2px"/>
<line x1="38" y1="54" x2="38" y2="62" style="fill:none;stroke:#000000;stroke-linecap:round;stroke-linejoin:round;stroke-width:2px"/>
<line x1="42" y1="54" x2="42" y2="62" style="fill:none;stroke:#000000;stroke-linecap:round;stroke-linejoin:round;stroke-width:2px"/>
<line x1="46" y1="54" x2="46" y2="62" style="fill:none;stroke:#000000;stroke-linecap:round;stroke-linejoin:round;stroke-width:2px"/>
<line x1="50" y1="54" x2="50" y2="62" style="fill:none;stroke:#000000;stroke-linecap:round;stroke-linejoin:round;stroke-width:2px"/>
<line x1="54" y1="54" x2="54" y2="62" style="fill:none;stroke:#000000;stroke-linecap:round;stroke-linejoin:round;stroke-width:2px"/>
</g>
</svg>