<svg width="12" height="12" viewBox="0 0 12 12" fill="none" xmlns="http://www.w3.org/2000/svg">
<path d="M5.58683 1.54025C5.71773 1.23229 5.78321 1.07831 5.87436 1.0309C5.95353 0.989701 6.04648 0.989701 6.12565 1.0309C6.2168 1.07831 6.28228 1.23229 6.41318 1.54025L7.45586 3.99315C7.49459 4.08419 7.51393 4.12971 7.5439 4.16457C7.57036 4.19541 7.60276 4.22008 7.6389 4.23697C7.67978 4.25606 7.72705 4.26129 7.82159 4.27175L10.3685 4.55363C10.6883 4.58902 10.8481 4.60671 10.9193 4.68296C10.9811 4.74918 11.0099 4.84191 10.997 4.93361C10.9822 5.03915 10.8627 5.15198 10.6239 5.37771L8.72133 7.17559C8.65076 7.24229 8.61542 7.27567 8.59309 7.31629C8.5733 7.35228 8.56091 7.39218 8.55679 7.43345C8.55209 7.48011 8.56193 7.52885 8.58167 7.62639L9.11307 10.2535C9.1798 10.5833 9.21316 10.7482 9.166 10.8427C9.125 10.9249 9.0498 10.9822 8.96266 10.9977C8.86235 11.0154 8.72308 10.9313 8.44454 10.7628L6.22601 9.42101C6.14369 9.3712 6.10252 9.34636 6.05875 9.33657C6.02002 9.32798 5.97999 9.32798 5.94126 9.33657C5.89749 9.34636 5.85633 9.3712 5.774 9.42101L3.55548 10.7628C3.27695 10.9313 3.13769 11.0154 3.03737 10.9977C2.95023 10.9822 2.875 10.9249 2.83404 10.8427C2.78689 10.7482 2.82024 10.5833 2.88696 10.2535L3.41834 7.62639C3.43807 7.52885 3.44793 7.48011 3.44325 7.43345C3.4391 7.39218 3.42674 7.35228 3.40695 7.31629C3.38458 7.27567 3.34928 7.24229 3.27867 7.17559L1.37615 5.37771C1.1373 5.15198 1.01788 5.03915 1.00303 4.93361C0.990135 4.84191 1.01887 4.74918 1.08069 4.68296C1.15187 4.60671 1.31175 4.58902 1.63151 4.55363L4.17845 4.27175C4.27298 4.26129 4.32024 4.25606 4.36111 4.23697C4.39727 4.22008 4.42965 4.19541 4.45614 4.16457C4.48608 4.12971 4.50543 4.08419 4.54414 3.99315L5.58683 1.54025Z" fill="#FFC700" stroke="#FFC700" stroke-width="2" stroke-linecap="round" stroke-linejoin="round"/>
</svg>
