<svg width="19" height="19" viewBox="0 0 19 19" fill="none" xmlns="http://www.w3.org/2000/svg">
<path d="M9.50041 0C6.9818 0.00272335 4.56712 1.00418 2.78619 2.78463C1.00526 4.56509 0.00353915 6.97912 0.000815082 9.49707C-0.098139 17.0741 8.83464 21.7079 14.9627 17.2665C15.0911 17.1771 15.2006 17.0632 15.2849 16.9314C15.3691 16.7996 15.4265 16.6524 15.4537 16.4984C15.4809 16.3443 15.4774 16.1864 15.4433 16.0337C15.4093 15.8811 15.3454 15.7366 15.2553 15.6087C15.1652 15.4808 15.0507 15.3719 14.9184 15.2884C14.7861 15.2049 14.6386 15.1483 14.4844 15.1219C14.3301 15.0956 14.1722 15.1 14.0197 15.1348C13.8671 15.1697 13.723 15.2344 13.5955 15.3251C9.04126 18.6633 2.26726 15.1526 2.37571 9.49707C2.74936 0.0553989 16.2522 0.056982 16.6251 9.49707V10.6842C16.6251 10.999 16.5 11.301 16.2773 11.5236C16.0546 11.7463 15.7526 11.8713 15.4377 11.8713C15.1227 11.8713 14.8207 11.7463 14.598 11.5236C14.3753 11.301 14.2502 10.999 14.2502 10.6842V9.49707C14.0507 3.22188 4.94931 3.22267 4.75061 9.49707C4.75852 10.4173 5.033 11.3156 5.54085 12.0832C6.04869 12.8508 6.76815 13.4549 7.61217 13.8223C8.4562 14.1896 9.38863 14.3047 10.2967 14.1534C11.2047 14.0021 12.0494 13.591 12.7287 12.9698C13.2002 13.5219 13.8292 13.9167 14.5315 14.1014C15.2337 14.2861 15.9757 14.2518 16.6579 14.0032C17.3401 13.7545 17.93 13.3034 18.3486 12.7102C18.7672 12.117 18.9945 11.4101 19 10.6842V9.49707C18.9973 6.97912 17.9956 4.56509 16.2146 2.78463C14.4337 1.00418 12.019 0.00272335 9.50041 0ZM9.50041 11.8713C8.87055 11.8713 8.26648 11.6212 7.8211 11.1759C7.37572 10.7307 7.12551 10.1268 7.12551 9.49707C7.12551 8.86737 7.37572 8.26347 7.8211 7.81821C8.26648 7.37295 8.87055 7.1228 9.50041 7.1228C10.1303 7.1228 10.7343 7.37295 11.1797 7.81821C11.6251 8.26347 11.8753 8.86737 11.8753 9.49707C11.8753 10.1268 11.6251 10.7307 11.1797 11.1759C10.7343 11.6212 10.1303 11.8713 9.50041 11.8713Z" fill="#949494"/>
</svg>
