<svg width="26" height="26" viewBox="0 0 26 26" fill="none" xmlns="http://www.w3.org/2000/svg">
<path d="M24.9031 13.2868C24.9543 13.2056 24.9844 13.1064 24.9844 13C24.9844 12.8936 24.9543 12.7953 24.9015 12.7108L24.9031 12.7132C24.8885 12.688 24.8739 12.6669 24.8584 12.6466L24.8593 12.6482C24.8113 12.5824 24.752 12.5271 24.6829 12.4865L24.6805 12.4849C24.6675 12.4768 24.6618 12.4621 24.648 12.4556L1.89719 1.08064C1.81756 1.04001 1.72413 1.01645 1.625 1.01645C1.28863 1.01645 1.01562 1.28945 1.01562 1.62582C1.01562 1.71276 1.0335 1.79564 1.06681 1.87039L1.06519 1.86632L5.837 13.0008L1.06519 24.1361C1.03431 24.2068 1.01644 24.2889 1.01644 24.375C1.01644 24.7114 1.28944 24.9844 1.62581 24.9844H1.62825C1.72656 24.9844 1.82 24.96 1.90125 24.9178L1.898 24.9194L24.6488 13.5452C24.6626 13.5387 24.6683 13.5233 24.6813 13.5159C24.7528 13.4729 24.8121 13.4184 24.8593 13.3543L24.8601 13.3526C24.8747 13.3339 24.8893 13.312 24.9023 13.2901L24.9039 13.2876L24.9031 13.2868ZM2.8405 2.91445L21.7929 12.3906H6.90219L2.8405 2.91445ZM6.90219 13.6094H21.7937L2.84131 23.0864L6.90219 13.6094Z" fill="white"/>
</svg>