<svg width="18" height="21" viewBox="0 0 18 21" fill="none" xmlns="http://www.w3.org/2000/svg">
<path d="M15.3 7.371V6.12499C15.3 2.74226 12.4794 0 9 0C5.52058 0 2.7 2.74226 2.7 6.12499V7.371C1.06203 8.06601 0.0023625 9.63748 0 11.375V16.625C0.00295313 19.04 2.01593 20.9971 4.49998 21H13.5C15.984 20.9971 17.997 19.04 18 16.625V11.375C17.9977 9.63748 16.938 8.06601 15.3 7.371ZM9.89999 14.875C9.89999 15.3583 9.49705 15.75 9 15.75C8.50295 15.75 8.10001 15.3583 8.10001 14.875V13.125C8.10001 12.6418 8.50295 12.25 9 12.25C9.49705 12.25 9.89999 12.6418 9.89999 13.125V14.875ZM13.5 7.00001H4.49998V6.12503C4.49998 3.7088 6.51469 1.75001 9 1.75001C11.4853 1.75001 13.5 3.70876 13.5 6.12503V7.00001Z" fill="#949494"/>
</svg>
