<svg width="29" height="29" viewBox="0 0 29 29" fill="none" xmlns="http://www.w3.org/2000/svg">
<path d="M14.5 18.125C16.502 18.125 18.125 16.502 18.125 14.5C18.125 12.498 16.502 10.875 14.5 10.875C12.498 10.875 10.875 12.498 10.875 14.5C10.875 16.502 12.498 18.125 14.5 18.125Z" stroke="#7B7B7B" stroke-width="1.8125"/>
<path d="M4.42395 12.8557C4.99495 13.2145 5.36234 13.8256 5.36234 14.4999C5.36233 15.1743 4.99494 15.7854 4.42395 16.1442C4.0354 16.3883 3.78506 16.5834 3.60695 16.8155C3.21677 17.3241 3.04457 17.9667 3.12823 18.6022C3.19097 19.0788 3.47247 19.5663 4.03548 20.5416C4.59851 21.5167 4.88001 22.0043 5.26137 22.2969C5.76986 22.6871 6.41253 22.8593 7.04799 22.7757C7.33803 22.7375 7.63215 22.6182 8.03776 22.4038C8.63405 22.0887 9.34714 22.0761 9.93121 22.4134C10.5152 22.7506 10.8608 23.3744 10.886 24.0483C10.9032 24.5068 10.947 24.8212 11.0589 25.0915C11.3042 25.6836 11.7747 26.1542 12.3668 26.3994C12.811 26.5834 13.3739 26.5834 14.5 26.5834C15.626 26.5834 16.189 26.5834 16.6332 26.3994C17.2253 26.1542 17.6958 25.6836 17.9411 25.0915C18.053 24.8212 18.0968 24.5068 18.114 24.0484C18.1391 23.3744 18.4847 22.7506 19.0688 22.4134C19.6528 22.0763 20.3658 22.0888 20.962 22.404C21.3678 22.6183 21.6619 22.7376 21.9519 22.7758C22.5874 22.8595 23.2301 22.6872 23.7385 22.297C24.1199 22.0045 24.4014 21.5168 24.9645 20.5417C25.2151 20.1075 25.41 19.77 25.5545 19.4871M24.5759 16.1443C24.005 15.7856 23.6376 15.1744 23.6375 14.5001C23.6375 13.8258 24.005 13.2145 24.5759 12.8557C24.9645 12.6116 25.2147 12.4165 25.3929 12.1844C25.783 11.6759 25.9552 11.0332 25.8716 10.3978C25.8089 9.92116 25.5273 9.43357 24.9643 8.45841C24.4013 7.48324 24.1198 6.99567 23.7384 6.70303C23.2299 6.31285 22.5872 6.14065 21.9518 6.2243C21.6618 6.2625 21.3677 6.38171 20.962 6.59611C20.3657 6.91125 19.6527 6.92382 19.0687 6.5866C18.4847 6.2494 18.1391 5.62566 18.114 4.95181C18.0968 4.49323 18.053 4.17886 17.9411 3.90853C17.6958 3.31639 17.2253 2.84592 16.6332 2.60064C16.189 2.41669 15.626 2.41669 14.5 2.41669C13.3739 2.41669 12.811 2.41669 12.3668 2.60064C11.7747 2.84592 11.3042 3.31639 11.0589 3.90853C10.947 4.17884 10.9032 4.49318 10.886 4.9517C10.8608 5.62561 10.5152 6.24941 9.93116 6.5866C9.34712 6.92379 8.6341 6.91119 8.03787 6.59607C7.63221 6.38166 7.33806 6.26244 7.048 6.22424C6.41254 6.14059 5.76988 6.31279 5.26139 6.70297C4.88002 6.99561 4.59852 7.48319 4.0355 8.45835C3.78485 8.8925 3.59 9.22998 3.44539 9.5129" stroke="#7B7B7B" stroke-width="1.8125" stroke-linecap="round"/>
</svg>
