<svg width="31" height="31" viewBox="0 0 31 31" fill="none" xmlns="http://www.w3.org/2000/svg">
<path d="M27.5596 7.27614V3.37703C27.5596 2.34893 26.726 1.51677 25.6989 1.51677C24.6718 1.51677 23.8382 2.34893 23.8382 3.37703V4.72758L18.9707 1.4436C16.6523 -0.121499 13.6578 -0.121499 11.3394 1.4436L3.2764 6.883C1.39339 8.15294 0.269531 10.2662 0.269531 12.537V23.2198C0.269531 26.9813 3.33098 30.0408 7.09205 30.0408H10.8134C11.8405 30.0408 12.6741 29.2086 12.6741 28.1805V18.2591C12.6741 17.9168 12.9532 17.639 13.2943 17.639H17.0157C17.3568 17.639 17.6359 17.9168 17.6359 18.2591V28.1805C17.6359 29.2086 18.4695 30.0408 19.4966 30.0408H23.218C26.9791 30.0408 30.0405 26.9813 30.0405 23.2198V12.537C30.0405 10.4857 29.1238 8.56344 27.5596 7.27614ZM26.3191 23.2198C26.3191 24.9288 24.9286 26.3202 23.218 26.3202H21.3573V18.2591C21.3573 15.8656 19.4098 13.9185 17.0157 13.9185H13.2943C10.9003 13.9185 8.95274 15.8656 8.95274 18.2591V26.3202H7.09205C5.38146 26.3202 3.99091 24.9288 3.99091 23.2198V12.537C3.99091 11.5039 4.50197 10.544 5.35789 9.96607L13.4209 4.52667C14.4753 3.81605 15.836 3.81605 16.8904 4.52667L24.9534 9.96731C25.8081 10.544 26.3204 11.5051 26.3204 12.537L26.3191 23.2198Z" fill="white"/>
</svg>
