<svg width="31" height="31" viewBox="0 0 31 31" fill="none" xmlns="http://www.w3.org/2000/svg">
<path d="M19.0813 7.71252C19.0813 3.60785 15.7067 0.269775 11.5571 0.269775C7.40751 0.269775 4.0329 3.60785 4.0329 7.71252C4.0329 11.8172 7.40751 15.1553 11.5571 15.1553C15.7067 15.1553 19.0813 11.8172 19.0813 7.71252ZM11.5571 11.4339C9.48294 11.4339 7.79501 9.76424 7.79501 7.71252C7.79501 5.66081 9.48294 3.99115 11.5571 3.99115C13.6313 3.99115 15.3192 5.66081 15.3192 7.71252C15.3192 9.76424 13.6313 11.4339 11.5571 11.4339ZM11.5421 19.2661C11.6712 20.2858 10.9401 21.2149 9.90806 21.3427C6.61371 21.7495 4.03164 24.7527 4.03164 28.1801C4.03164 29.2084 3.19018 30.0408 2.15059 30.0408C1.11099 30.0408 0.269531 29.2084 0.269531 28.1801C0.269531 22.9094 4.29875 18.2849 9.44156 17.6511C10.4674 17.5196 11.4117 18.2465 11.5408 19.2674L11.5421 19.2661ZM29.1136 23.2158L28.3136 22.7494C28.4189 22.3003 28.4866 21.8376 28.4866 21.3563C28.4866 20.875 28.4189 20.4136 28.3136 19.9633L29.1136 19.4969C30.009 18.9759 30.3075 17.8347 29.7795 16.949C29.2516 16.0633 28.0991 15.7705 27.2037 16.2903L26.3911 16.7641C25.7353 16.1799 24.9565 15.7408 24.0962 15.4703V14.5338C24.0962 13.5055 23.2548 12.6731 22.2152 12.6731C21.1756 12.6731 20.3341 13.5055 20.3341 14.5338V15.4703C19.4739 15.7408 18.6951 16.1799 18.0392 16.7641L17.2266 16.2903C16.3325 15.7718 15.18 16.0633 14.6508 16.949C14.1241 17.8347 14.4213 18.9746 15.3167 19.4969L16.1168 19.9633C16.0115 20.4123 15.9437 20.875 15.9437 21.3563C15.9437 21.8376 16.0115 22.2991 16.1168 22.7494L15.3167 23.2158C14.4213 23.7368 14.1229 24.878 14.6508 25.7637C15.002 26.3529 15.629 26.6804 16.2736 26.6804C16.5984 26.6804 16.9269 26.5973 17.2266 26.4224L18.0392 25.9485C18.6951 26.5328 19.4739 26.9719 20.3341 27.2423V28.1788C20.3341 29.2072 21.1756 30.0395 22.2152 30.0395C23.2548 30.0395 24.0962 29.2072 24.0962 28.1788V27.2423C24.9565 26.9719 25.7353 26.5328 26.3911 25.9485L27.2037 26.4224C27.5035 26.5973 27.832 26.6804 28.1568 26.6804C28.8014 26.6804 29.4284 26.3529 29.7795 25.7637C30.3062 24.878 30.009 23.738 29.1136 23.2158ZM22.2164 23.217C21.1793 23.217 20.3354 22.3822 20.3354 21.3563C20.3354 20.3305 21.1793 19.4956 22.2164 19.4956C23.2535 19.4956 24.0975 20.3305 24.0975 21.3563C24.0975 22.3822 23.2535 23.217 22.2164 23.217Z" fill="white"/>
</svg>
