<svg width="31" height="31" viewBox="0 0 31 31" fill="none" xmlns="http://www.w3.org/2000/svg">
<path d="M6.4697 30.0395C5.786 30.0395 5.1023 29.7915 4.56999 29.2966L2.12679 27.027C-0.341221 24.5613 -0.341221 20.6273 2.07716 18.21C3.24974 17.0392 4.80823 16.3943 6.46474 16.3943C8.12125 16.3943 9.67973 17.0392 10.8511 18.21C12.0237 19.3808 12.6689 20.9386 12.6689 22.5955C12.6689 24.2525 12.0237 25.809 10.8511 26.9811L8.37562 29.2941C7.84082 29.7915 7.15588 30.0395 6.4697 30.0395ZM6.46474 20.115C5.80213 20.115 5.178 20.373 4.70896 20.8418C3.74235 21.808 3.74235 23.3819 4.70896 24.3493L6.46846 25.9814L8.26394 24.3046C8.68707 23.8804 8.94516 23.2578 8.94516 22.5955C8.94516 21.9332 8.68707 21.3094 8.21803 20.8406C7.749 20.373 7.12734 20.115 6.46474 20.115ZM23.8413 13.9163C23.1576 13.9163 22.4752 13.6695 21.9429 13.1746L19.4984 10.9024C17.0304 8.43807 17.0304 4.50399 19.4488 2.0855C20.6214 0.914706 22.1799 0.269775 23.8364 0.269775C25.4929 0.269775 27.0514 0.914706 28.2227 2.0855C29.3953 3.2563 30.0405 4.81406 30.0405 6.47103C30.0405 8.12801 29.3953 9.68452 28.2227 10.8566L25.7473 13.1696C25.2125 13.667 24.5275 13.9163 23.8413 13.9163ZM23.8364 3.99177C23.1738 3.99177 22.5496 4.24974 22.0806 4.71856C21.114 5.68471 21.114 7.25859 22.0806 8.22599L23.8401 9.8594L25.6356 8.18134C26.0587 7.75717 26.3168 7.13457 26.3168 6.47227C26.3168 5.80998 26.0587 5.18613 25.5897 4.71732C25.1206 4.24974 24.499 3.99177 23.8364 3.99177ZM30.0405 24.4559C30.0405 21.3789 27.5353 18.8748 24.4568 18.8748H19.4935C18.4673 18.8748 17.6322 18.0401 17.6322 17.0144C17.6322 16.4786 17.8531 15.985 18.2526 15.6266C19.0182 14.9407 19.0827 13.7649 18.3966 12.9997C17.7116 12.2345 16.5341 12.1687 15.7685 12.8558C14.5872 13.9138 13.9085 15.4294 13.9085 17.0144C13.9085 20.0915 16.4137 22.5955 19.4922 22.5955H24.4555C25.4817 22.5955 26.3168 23.4302 26.3168 24.4559C26.3168 25.4816 25.4817 26.3163 24.4555 26.3163H14.5301C13.5015 26.3163 12.6689 27.1485 12.6689 28.1767C12.6689 29.2048 13.5015 30.037 14.5301 30.037H24.4568C27.5353 30.037 30.0405 27.533 30.0405 24.4559Z" fill="white"/>
</svg>
